# xmcd CD database file
#
# Track frame offsets:
#	182
#	21270
#	38652
#	59377
#	79795
#	94257
#	115282
#	138632
#	151342
#	174830
#	195300
#	213282
#	239120
#	256182
#	270127
#
# Disc length: 3875 seconds
#
# Revision: 0
# Processed by: cddbd v1.5.2PL0 Copyright (c) Steve Scherf et al.
# Submitted via: CDex 1.79
#
DISCID=c30f210f
DTITLE=Yanni - Reflections of Passion
DYEAR=1990
DGENRE=New Age
TTITLE0=After the Sunrise
TTITLE1=The Mermaid
TTITLE2=Quiet Man
TTITLE3=Nostalgia
TTITLE4=Almost a Whisper
TTITLE5=The Rain Must Fall
TTITLE6=Acroyali
TTITLE7=Farewell
TTITLE8=Swept Away
TTITLE9=True Nature
TTITLE10=Secret Vows
TTITLE11=Flight of Fantasy
TTITLE12=A Word in Private
TTITLE13=First Touch
TTITLE14=Reflections of Passion
EXTD=YEAR: 1990
EXTT0=
EXTT1=
EXTT2=
EXTT3=
EXTT4=
EXTT5=
EXTT6=
EXTT7=
EXTT8=
EXTT9=
EXTT10=
EXTT11=
EXTT12=
EXTT13=
EXTT14=
PLAYORDER=
